<svg id="Layer_1" data-name="Layer 1" xmlns="http://www.w3.org/2000/svg" viewBox="0 0 1500 1000"><defs><style>.cls-1{fill:#cc092f;}.cls-2{fill:#ffd200;}.cls-3{fill:#0046ae;}.cls-4{fill:#f5d402;}.cls-5{fill:#b07f55;}.cls-6{fill:#d10429;}.cls-7{fill:#097754;}.cls-8{fill:#0b45bb;}</style></defs><rect class="cls-1" width="1500" height="1000"/><rect class="cls-2" width="1000" height="1000"/><rect class="cls-3" width="500" height="1000"/><path d="M709.57,276.84a10.76,10.76,0,0,0-6.4,1.75,5.27,5.27,0,0,1,3.76,5.1v6.21h-6.19a5.25,5.25,0,0,1-5.07-3.73,12.69,12.69,0,0,0,0,12.85,5.24,5.24,0,0,1,5.07-3.77h6.19V325.1a5.27,5.27,0,0,1-3.5,5c3,.41,5.49,4.38,6.19,6.56.69-2.17,3.23-6.15,6.18-6.56a5.26,5.26,0,0,1-3.54-5V295.25h6.19a5.27,5.27,0,0,1,5.08,3.73,12.69,12.69,0,0,0,0-12.85,5.26,5.26,0,0,1-5.08,3.77h-6.19v-6.21a5.29,5.29,0,0,1,3.71-5.1,10.73,10.73,0,0,0-6.4-1.75Z"/><path class="cls-4" d="M709.57,278.13a11.68,11.68,0,0,0-3.66.59,6.59,6.59,0,0,1,2.3,5v6.21a1.09,1.09,0,0,1,0,.26v1h-1l-.26,0h-6.19a6.52,6.52,0,0,1-4.9-2.27,11.23,11.23,0,0,0,0,7.36,6.54,6.54,0,0,1,4.94-2.31h7.47c0,.13,0,.26,0,.39V295a2,2,0,0,1,0,.26v29.85a6.28,6.28,0,0,1-2.31,4.66,9.83,9.83,0,0,1,2.44,2.15,12.55,12.55,0,0,1,1.28,2.22,12.55,12.55,0,0,1,1.28-2.22,9.78,9.78,0,0,1,2.39-2.1,6.37,6.37,0,0,1-2.31-4.71V294h1l.25,0h6.19a6.52,6.52,0,0,1,4.9,2.27,11.53,11.53,0,0,0,.64-3.68,11.76,11.76,0,0,0-.59-3.68,6.58,6.58,0,0,1-4.95,2.31h-6.19a1.11,1.11,0,0,1-.25-.05h-1v-1a2.34,2.34,0,0,1,0-.26v-6.21a6.58,6.58,0,0,1,2.26-4.92,11.48,11.48,0,0,0-3.67-.65"/><path d="M787,386.22a32.86,32.86,0,0,1-9.09-9.3c-5.31-8.55-7.55-19.05-7.55-29.72,0-4.51,5-9.59,5-13.23a61.87,61.87,0,0,0-.51-8.82c1.79.24,4.91,3.42,4.91,3.42s-.11-9.15-3-10.75c0,0,1.17-1.2,5.38-1.33-1.19-3-7-6.68-7-6.68a3.82,3.82,0,0,1,1.53-1.37,19.2,19.2,0,0,1,5.12-1.67,54.49,54.49,0,0,1-5.76-1.58,134.66,134.66,0,0,1-15.95-6.51,46.91,46.91,0,0,0-21.33-5c-3,0-7.37.08-9.94,1.8-2.36,1.57-2.16,3.61-3,4.32-1.94,1.69-5.27,1.63-6.87,1.63-10.36,0-10.75,11.14-10.75,11.14s2.65-4,7.34-4c7.79,0,13.69,4.26,13.69,5.87,0,.65-.8.77-.85.77-5.09,0-12.77-2.94-16.85-3.09v2c9.11,3.18,18.34,7.68,18.34,27.53,0,12.5-1.49,25.26-7.72,35.29a33.14,33.14,0,0,1-9.13,9.3l37,6.69Z"/><g id="eagle_half" data-name="eagle half"><path d="M750,377.85l-37,8.37a88.45,88.45,0,0,1-15.14-6.08c-9.77-5.47-14.84-10.91-26.45-11.44v-8.86c0-4.74,1.7-9,1.7-13.54-4.89-1.32-18.48-18-31-25.39-18.44,12-32.72,31.67-32.72,40.72,0,0,.55,194.51,0,262.28,0,3.9-2.35,9.42-2.35,9.42,6.74-2.86,19.08-19.81,21.67-26.25v3.08c10.17-4.65,17.62-16.88,20.95-23.21.06.91.22,3.21.22,3.21,9.08-8,20.64-55.25,20.64-55.25l19.27,19s-7,14.2-9.68,16.74a31.43,31.43,0,0,0,3.88.21c-1.27,1.83-11,15.84-14,21.12-2.84,4.94-4.85,2.74-9.22,2.74-3.62,0-11.83,5.79-13.18,8.14a17.05,17.05,0,0,0-2.47,7.92c0,2.71,2.86,6.42,2.86,6.42a3.32,3.32,0,0,1,.85-1.75s7.51,9.39,8.62,10.62c.86.95,4.7,1.57,6,.34,3.39-3.09,6.67-5.25,9.69-9.72,1.55-2.3,1.67-4.94,3.45-7.41,6-8.27,17.85-24.09,20.57-27.71l.51,2.87c3.07-6.24,17.87-18.16,17.87-18.16l15.48,7.15s-28.9,66.71-54.56,77c0,0,11.16,4.77,24.87,11.91,2,1,4.06,2.16,6.14,3.3,1.73-2.09,3.55-4.41,5.34-6.81,8.19-11,16.21-23.77,16.21-23.77.56,3.31-3.77,13.55-11.09,26.17-1.44,2.48-2.94,5.07-4.61,7.71,1.86,1.06,3.7,2.14,5.55,3.25,13.58,8.2,26.33,17.63,31,26.3l3.34-8.38L750,681.72V389l1.67-4.18Z"/><path class="cls-5" d="M750,681.72c-4.79-5.22-14.81-11.59-26.06-17.47,13.61-24.53,20.35-63.29,17.19-71,0,0-5.59,20.1-12.42,31.56-6.32,10.61-14.1,22.55-21.62,31.4a169.94,169.94,0,0,0-17.33-6.43c22.55-17.44,45.61-75.07,45.61-75.07l-23.84-11.1S702.61,574,699.71,576c0,0-1.24-5.19-2-7,0,0-3.42,2.59-5.29,2.65,0,0-.56-3.52-1-5.82-2.36,1.57-6.27,1.24-6.27,1.24,3.44-1.63,7.5-11.65,7.5-11.65L670,525s-8,38.58-17.11,46.51V405.36l7.21,6.72L671,401.85v-7.8l-9.68,9.08V379.62c1.46-2.21,2.42-3.87,3.15-5.18,1.57,2.74,6.64,11.15,12.59,16.32,1-4,7.42-7.8,7.42-7.8s2.31,6.28,5.84,7.84c1.25-2.2,8.67-7.07,8.67-7.07s-6.35,1-8.92,3.39c-2.21-.5-2.77-9.25-2.77-9.25s-9.34,4.56-11,7.83c-1.78-.48-4.55-7.52-5.63-10.4a62.13,62.13,0,0,1,7-.39c2.67,0,6.07,1.27,9.64,3,3.93,1.85,8,4.2,11.69,5.86,4.7,2.14,11.8,2.57,13.87,2.66A61.39,61.39,0,0,1,705,391s11.18-.1,19-4a76.15,76.15,0,0,0,8.19-5.74,30.45,30.45,0,0,1-5.38,9.59c11.53-1,17.28-7.59,18.9-9.8A31.73,31.73,0,0,0,750,389h4.17V673.39Z"/><path class="cls-5" d="M665,347.16l.21,5.31V368.1c-4.18-1.44-9.44-8.34-12-12V354a5.87,5.87,0,0,1,2-4.28l-2.51-.9a7.38,7.38,0,0,0-2,4.84v1.24L643.28,363l-7.38-11.22V349c0-1.85,1.42-3.91,2.61-5.31l-2.48-.9c-1.25,1.63-2.56,3.82-2.56,5.87v2.22L625,359.67l-4.31-9.3c5.17-7.19,13.56-15.24,21.46-21,0,0,17.14,15.8,22.91,17.81Z"/><path class="cls-5" d="M621.61,362.32v12.89l-6,5.57V361.63a14.65,14.65,0,0,1,2-6.46Z"/><path class="cls-5" d="M640.21,367.29v8l-6.87,6.47V356.79Z"/><path class="cls-5" d="M630.9,381.68,624,375.25v-9.33l6.86-7.24Z"/><path class="cls-5" d="M662.26,372c-1.59,2.26-5.77,7.8-10.28,10.23V360.35C653,362.08,657.76,369.78,662.26,372Z"/><path class="cls-5" d="M649.55,361.46v20.22l-6.87-6.43V368.1Z"/><path class="cls-5" d="M621.61,383v20.18l-6-5.62v-8.95Z"/><path class="cls-5" d="M630.9,389.47v7.24L624,403.13V383.05Z"/><path class="cls-5" d="M640.2,383.05v20.08l-6.87-6.46v-7.16Z"/><path class="cls-5" d="M649.54,389.51v7.16l-6.87,6.46V383.05Z"/><path class="cls-5" d="M658.84,403.18,652,396.71V390a28.13,28.13,0,0,0,6.87-6.94Z"/><path class="cls-5" d="M641.44,412.08l7.25-6.76V571.48s.51,8.25.85,13.62l-15.35,15.59V405.27Z"/><path class="cls-5" d="M630,594.48c0,5.34-9.71,17.8-14.42,20.64V405.36l7.17,6.73,7.25-6.77Z"/><path class="cls-6" d="M690.28,576.45l5.29-3.64s.35,1.76.81,4.16c-2.27,3.11-15.28,20.93-21.71,29.63-1.61,2.16-2.95,7.67-2.95,7.67s-2.34-1.12-2.34-3.13.25-4.32.25-4.32a6.71,6.71,0,0,1-4.78,2c0-2.43,4.68-5.06,4.87-8.52-3.57,2.65-6.67,1.29-10.8,2.57-4.49,1.39-5.74,3.28-7.12,3.21-.81,0-1.55-1.45-1.24-2.31.54-1.5,6.1-5.64,10-6.38.93-.18,8.26,1.6,9.73-.69l16.89-26.16a5.49,5.49,0,0,0,1.67-.61s-.06,4.81,1.45,6.51Z"/><path class="cls-6" d="M656.27,605.79a.79.79,0,0,1,0,1.11l-2.39,2.1a.82.82,0,0,1-1.06-1.25l2.39-2.09a.66.66,0,0,1,.55-.17.84.84,0,0,1,.56.3Z"/><path class="cls-6" d="M659.89,608.31a1.87,1.87,0,0,1-.07,2.64v0L654,616.06a2,2,0,0,1-2.77-.41,2,2,0,0,1,.17-2.58l5.8-5.06a1.94,1.94,0,0,1,1-.43A2,2,0,0,1,659.89,608.31Z"/><path class="cls-6" d="M663.22,612.25a1.88,1.88,0,0,1-.07,2.64l0,0L657.29,620a1.87,1.87,0,0,1-2.64-.29h0a1.92,1.92,0,0,1,.09-2.69l5.8-5.06a1.78,1.78,0,0,1,1-.43,2.15,2.15,0,0,1,1.71.73Z"/><path class="cls-6" d="M665.22,615.38a2,2,0,0,1,1.66.68,1.92,1.92,0,0,1-.08,2.7l-5.8,5.06a2,2,0,0,1-2.61-3l5.85-5.1a1.68,1.68,0,0,1,1-.38Z"/></g><g id="eagle_half-2" data-name="eagle half-2"><path d="M750,377.85l37,8.37a88.45,88.45,0,0,0,15.14-6.08c9.77-5.47,14.84-10.91,26.45-11.44v-8.86c0-4.74-1.7-9-1.7-13.54,4.89-1.32,18.48-18,31-25.39,18.44,12,32.72,31.67,32.72,40.72,0,0-.55,194.51,0,262.28,0,3.9,2.35,9.42,2.35,9.42-6.74-2.86-19.08-19.81-21.68-26.25v3.08c-10.16-4.65-17.61-16.88-20.94-23.21-.06.91-.22,3.21-.22,3.21-9.08-8-20.64-55.25-20.64-55.25l-19.27,19s7,14.2,9.68,16.74a31.43,31.43,0,0,1-3.88.21c1.27,1.83,11,15.84,14,21.12,2.84,4.94,4.85,2.74,9.22,2.74,3.62,0,11.83,5.79,13.18,8.14a17.05,17.05,0,0,1,2.47,7.92c0,2.71-2.86,6.42-2.86,6.42a3.32,3.32,0,0,0-.85-1.75s-7.51,9.39-8.62,10.62c-.86.95-4.7,1.57-6,.34-3.39-3.09-6.67-5.25-9.69-9.72-1.55-2.3-1.67-4.94-3.45-7.41-6-8.27-17.85-24.09-20.57-27.71l-.51,2.87c-3.07-6.24-17.87-18.16-17.87-18.16l-15.48,7.15s28.9,66.71,54.56,77c0,0-11.16,4.77-24.87,11.91-2,1-4.06,2.16-6.14,3.3-1.73-2.09-3.55-4.41-5.34-6.81C778.92,647.8,770.9,635,770.9,635c-.56,3.31,3.77,13.55,11.09,26.17,1.44,2.48,2.94,5.07,4.61,7.71-1.86,1.06-3.7,2.14-5.55,3.25-13.58,8.2-26.33,17.63-31,26.3l-3.34-8.38,3.34-8.37V389l-1.67-4.18Z"/><path class="cls-5" d="M750,681.72c4.79-5.22,14.81-11.59,26.06-17.47-13.61-24.53-20.35-63.29-17.19-71,0,0,5.59,20.1,12.42,31.56,6.32,10.61,14.1,22.55,21.62,31.4a169.94,169.94,0,0,1,17.33-6.43c-22.55-17.44-45.61-75.07-45.61-75.07l23.84-11.1S797.39,574,800.29,576c0,0,1.24-5.19,2-7,0,0,3.42,2.59,5.29,2.65,0,0,.56-3.52,1-5.82,2.36,1.57,6.27,1.24,6.27,1.24-3.44-1.63-7.5-11.65-7.5-11.65L830.05,525s8,38.58,17.11,46.51V405.36L840,412.08,829,401.85v-7.8l9.68,9.08V379.62c-1.46-2.21-2.42-3.87-3.15-5.18-1.57,2.74-6.64,11.15-12.59,16.32-1-4-7.42-7.8-7.42-7.8s-2.31,6.28-5.84,7.84c-1.25-2.2-8.67-7.07-8.67-7.07s6.35,1,8.92,3.39c2.21-.5,2.77-9.25,2.77-9.25s9.34,4.56,11,7.83c1.78-.48,4.55-7.52,5.63-10.4a62.13,62.13,0,0,0-7-.39c-2.67,0-6.07,1.27-9.64,3-3.93,1.85-8,4.2-11.69,5.86-4.7,2.14-11.8,2.57-13.87,2.66A61.39,61.39,0,0,0,795,391s-11.18-.1-19-4a76.15,76.15,0,0,1-8.19-5.74,30.45,30.45,0,0,0,5.38,9.59c-11.53-1-17.28-7.59-18.9-9.8A31.73,31.73,0,0,1,750,389h-4.17V673.39Z"/><path class="cls-5" d="M835,347.16l-.21,5.31V368.1c4.18-1.44,9.44-8.34,12-12V354a5.87,5.87,0,0,0-2-4.28l2.51-.9a7.38,7.38,0,0,1,2,4.84v1.24l7.51,8.09,7.38-11.22V349c0-1.85-1.42-3.91-2.61-5.31l2.48-.9c1.25,1.63,2.56,3.82,2.56,5.87v2.22c1.73,1.81,8.49,8.79,8.49,8.79l4.31-9.3c-5.17-7.19-13.56-15.24-21.46-21,0,0-17.14,15.8-22.91,17.81Z"/><path class="cls-5" d="M878.39,362.32v12.89l6,5.57V361.63a14.65,14.65,0,0,0-2-6.46Z"/><path class="cls-5" d="M859.79,367.29v8l6.87,6.47V356.79Z"/><path class="cls-5" d="M869.09,381.68l6.87-6.43v-9.33l-6.87-7.24Z"/><path class="cls-5" d="M837.74,372c1.59,2.26,5.77,7.8,10.28,10.23V360.35C847,362.08,842.24,369.78,837.74,372Z"/><path class="cls-5" d="M850.45,361.46v20.22l6.87-6.43V368.1Z"/><path class="cls-5" d="M878.39,383v20.18l6-5.62v-8.95Z"/><path class="cls-5" d="M869.1,389.47v7.24l6.87,6.42V383.05Z"/><path class="cls-5" d="M859.8,383.05v20.08l6.87-6.46v-7.16Z"/><path class="cls-5" d="M850.46,389.51v7.16l6.87,6.46V383.05Z"/><path class="cls-5" d="M841.16,403.18l6.87-6.47V390a28.13,28.13,0,0,1-6.87-6.94Z"/><path class="cls-5" d="M858.56,412.08l-7.25-6.76V571.48s-.51,8.25-.85,13.62l15.35,15.59V405.27Z"/><path class="cls-5" d="M870,594.48c0,5.34,9.71,17.8,14.42,20.64V405.36l-7.17,6.73L870,405.32Z"/><path class="cls-6" d="M809.72,576.45l-5.29-3.64s-.35,1.76-.81,4.16c2.27,3.11,15.28,20.93,21.71,29.63,1.61,2.16,2.95,7.67,2.95,7.67s2.34-1.12,2.34-3.13-.25-4.32-.25-4.32a6.71,6.71,0,0,0,4.78,2c0-2.43-4.68-5.06-4.87-8.52,3.57,2.65,6.67,1.29,10.8,2.57,4.49,1.39,5.74,3.28,7.12,3.21.81,0,1.55-1.45,1.24-2.31-.54-1.5-6.1-5.64-10-6.38-.93-.18-8.26,1.6-9.73-.69l-16.89-26.16a5.49,5.49,0,0,1-1.67-.61s.06,4.81-1.45,6.51Z"/><path class="cls-6" d="M843.73,605.79a.79.79,0,0,0,0,1.11l2.39,2.1a.82.82,0,0,0,1.06-1.25l-2.39-2.09a.66.66,0,0,0-.55-.17.84.84,0,0,0-.56.3Z"/><path class="cls-6" d="M840.11,608.31a1.87,1.87,0,0,0,.07,2.64v0l5.81,5.09a2,2,0,0,0,2.77-.41,2,2,0,0,0-.17-2.58L842.8,608a1.94,1.94,0,0,0-1-.43A2,2,0,0,0,840.11,608.31Z"/><path class="cls-6" d="M836.78,612.25a1.88,1.88,0,0,0,.07,2.64l0,0,5.84,5.09a1.87,1.87,0,0,0,2.64-.29h0a1.92,1.92,0,0,0-.09-2.69l-5.8-5.06a1.78,1.78,0,0,0-1-.43,2.15,2.15,0,0,0-1.71.73Z"/><path class="cls-6" d="M834.78,615.38a2,2,0,0,0-1.66.68,1.92,1.92,0,0,0,.08,2.7l5.8,5.06a2,2,0,0,0,2.61-3l-5.85-5.1a1.68,1.68,0,0,0-1-.38Z"/></g><path class="cls-5" d="M741.45,296.41c9.54,0,16.26,4.37,25.29,8.39,2.37,1.06,4.55,1.91,6.49,2.57a8,8,0,0,0-2.44,3.09,9.17,9.17,0,0,1,5.89,4.15s-3.85.44-4.48,2.7c2.16.16,4.3,2.89,4.31,5.53l-5.46-1.72A69.25,69.25,0,0,1,772.37,334c0,3.42-4.9,7.44-4.9,13.23,0,18.18,4.56,25.17,7.81,30.79,1.27,2.2,2.3,4.73,4.43,6.64-9.35-5-16.29-11.24-16.29-17v-22H761v22c0,4.21,1,6.17,1,6.17,1.46,4.65,4.43,11.83,6.27,14.73-8.6-4.67-13-10.51-13-12.68V345.62h-2.43v30.62l.47,2.1A18.12,18.12,0,0,1,750,382.4a18.11,18.11,0,0,1-3.29-4.06l.47-2.1V345.62h-2.43v30.19c0,2.17-4.37,8-13,12.68,1.84-2.9,4.81-10.08,6.27-14.73,0,0,1-2,1-6.17v-22h-2.44v22c0,5.79-6.92,12.05-16.25,17,2.11-1.91,3.13-4.45,4.39-6.64,3.55-6.14,7.94-13.95,7.94-36.18,0-8.35-1.23-14-3.37-18-.65-1.31-1.53-4.8,3.45-4.8,2.58,0,8.49,4.58,8.49,4.58a8.19,8.19,0,0,0-3.24-5.73,3.55,3.55,0,0,1-1.32-2.45,5.18,5.18,0,0,1,2.3-3.08c.7-.32-10.15-2.21-10.15-7.15,0-1,.64-1.71,2.9-1.71,3,0,7.76,3.55,12,3.55,3.16,0,4.4-.77,7.64-.77,3.95,0,12.19,7.51,15,7.24-3.15-2-8.24-9.51-16-9.51-2.68,0-5.1.6-7.6.6-3.2,0-6.35-3-9.81-3-2.32,0-4.91.13-5.29-.47-.67-1.05-.07-1.66.56-2.53,1.17-1.63,4.47-2.11,7.72-2.22,1,0,1.95-.05,2.86,0s1.75,0,2.47,0Z"/><path class="cls-1" d="M710.44,308.17a8.07,8.07,0,0,1,7.11-3.84c2.13,0,9.16-.14,9.16-.14.94,2.44,5.21,6.52,5.21,10.77,0,0-4.33-7.84-16.43-7.84a11.71,11.71,0,0,0-5,1.05Z"/><path class="cls-6" d="M730.12,316.46s-2.58,2.72-3.14,4.18c-2.55-1-7-5.57-7-5.57s3.77,2.21,10.14,1.39Z"/><path d="M726,309.24s-3-1-3-2c0-1.28,1.44-1.28,2.31-.28a4.53,4.53,0,0,1,.66,2.24Z"/><ellipse cx="739.9" cy="310.87" rx="6.14" ry="4.68"/><ellipse class="cls-4" cx="739.89" cy="310.87" rx="4.27" ry="4.28"/><ellipse cx="739.9" cy="310.88" rx="1.96" ry="1.96"/><polygon points="670.96 618.75 684.46 626.15 681.19 641.23 667.68 633.83 670.96 618.75"/><path d="M608.06,473.84l-4.86,2.23,54.95,120.82H664Zm64.81,142.48-4,4.12,2.47,5.48,4.82-2.23Z"/><path d="M625.14,569.1s4.63,9.6,8.15,10.91c-1.82-.49-7.73,1.68-7.73,1.68s10.42,9.34,19.25,10c7.49.51,11.13-3.24,11.13-3.24l-1.5-8a29.79,29.79,0,0,0-11.92-8.12c-7.41-2.59-17.38-3.22-17.38-3.22Z"/><path d="M660,551.91s-6.39,5.49-8.14,11.85S653,577.35,653,577.35l5.37,10.06s7.44-4,10.61-9.92,2-14,2-14-5.89,2.2-6.64,3.18c1.24-6.6-4.34-14.79-4.34-14.79Z"/><path d="M639.49,549.34a43.16,43.16,0,0,1-14.33,2c-6.72-.41-12.31-6.07-12.31-6.07s5.57-3.79,8.32-3.29c-3-1.11-7.41-8.72-7.41-8.72s6.23-1.89,11.76.2,10.35,8.18,10.35,8.18l3.62,7.66Z"/><path d="M642,513.7s3.63,7.56,2.77,10.18c1.13-1.74,5.4-4.47,5.4-4.47s2.58,12.24.11,19.79-10,10.44-10,10.44L632,533.46s-1.24-6,1.35-10.74,8.63-9,8.63-9Z"/><path d="M594.7,493.7a34.69,34.69,0,0,1,15,2.16,14.56,14.56,0,0,1,7.85,7.06l3,8s-8.55,3.22-15.31.76S593.52,501,593.52,501s4.72-1.8,6.52-1.12c-2.62-1.17-5.34-6.21-5.34-6.21Z"/><path d="M619.41,478.92s3.44,4.44,3.55,9.56c.92-2.72,5.22-5.73,5.22-5.73s4.43,10.76,3.45,18.39-7.34,12.16-7.34,12.16l-7.94-15.14s-2.59-6.2-1.82-11,4.88-8.23,4.88-8.23Z"/><path d="M592.2,450s-1.43,8.25,1,13c2.16,4.23,3.54,5.16,3.54,5.16-4.13-2.73-10.37-3-10.37-3s2.22,9,7.53,13.06,13.5,3.14,13.5,3.14,5.38-7.2,5-14.95-6.51-16.06-6.51-16.06-2.42,5-2.63,8.8C601.7,455.27,592.2,450,592.2,450Z"/><path d="M656.36,588.07l.23,2.95c4.89.05,5.62-.44,6.88,1.11a4.12,4.12,0,0,0,4.82,1,4.06,4.06,0,0,0,2-5.34,3.82,3.82,0,0,0-4.56-2.09c-1.1.22-1.82,1.1-2.76,1.59-1.77.92-6.59.76-6.59.76Z"/><path d="M655.94,585.81l2.38,1.75c-2.55,4.19-3.35,4.56-2.71,6.45a4.17,4.17,0,0,1-1.69,4.64,4,4,0,0,1-5.56-1.14,3.84,3.84,0,0,1,.65-5c.77-.82,1.89-1,2.8-1.5,1.71-1,4.13-5.21,4.13-5.21Z"/><path d="M639.36,550.67l.22,3c4.89,0,5.62-.44,6.88,1.1a4.12,4.12,0,0,0,4.82,1,4.05,4.05,0,0,0,2-5.33,3.81,3.81,0,0,0-4.56-2.09c-1.1.22-1.82,1.1-2.76,1.58-1.77.92-6.59.76-6.59.76Z"/><path d="M640.35,551.72l2.08,2.1c-3.17,3.75-4,4-3.68,5.95a4.15,4.15,0,0,1-2.39,4.32,4,4,0,0,1-5.31-2,3.83,3.83,0,0,1,1.41-4.83c.89-.69,2-.66,3-1,1.85-.74,4.89-4.5,4.89-4.5Z"/><path d="M622.87,515.66l.22,3c4.9,0,5.63-.44,6.88,1.11a4.15,4.15,0,0,0,4.83,1,4.05,4.05,0,0,0,2-5.33,3.8,3.8,0,0,0-4.56-2.09c-1.1.22-1.83,1.1-2.76,1.58-1.77.92-6.59.76-6.59.76Z"/><path d="M624.23,515l2.08,2.11c-3.17,3.74-4,4-3.67,5.94a4.16,4.16,0,0,1-2.4,4.32,4,4,0,0,1-5.31-2,3.83,3.83,0,0,1,1.42-4.82c.88-.7,2-.67,3-1.06,1.86-.74,4.89-4.5,4.89-4.5Z"/><path d="M605.31,478.7l.22,3c4.9,0,5.63-.44,6.88,1.1a4.14,4.14,0,0,0,4.83,1,4.05,4.05,0,0,0,2-5.33,3.8,3.8,0,0,0-4.56-2.09c-1.1.22-1.82,1.1-2.76,1.58-1.77.92-6.59.76-6.59.76Z"/><path d="M606.67,478.08l2.08,2.11c-3.17,3.74-4,4-3.67,5.94a4.19,4.19,0,0,1-2.39,4.33,4,4,0,0,1-5.32-2,3.84,3.84,0,0,1,1.42-4.83c.88-.69,2-.67,3-1.06,1.86-.74,4.89-4.5,4.89-4.5Z"/><polygon class="cls-4" points="672.9 623.03 681.28 627.61 679.25 636.97 670.87 632.38 672.9 623.03"/><path class="cls-4" d="M636.25,541.9c-1.76.73-4.36-6.94-6.27-11.14s-5.94-11-4.81-11.48,2.87,2.93,4.88,7.34,7.84,14.6,6.2,15.28Z"/><path class="cls-4" d="M618.22,501.51c-1.75.73-3.67-4.29-5.58-8.5s-3.87-7.35-2.74-7.87,3.07,3.21,4.68,6.74,5.29,8.94,3.64,9.63Z"/><path class="cls-4" d="M659.92,593.1c-1.38.37-7.39-12.26-12.25-23s-8.48-19.34-7.35-19.85,5.18,9.53,10,20.22,10.59,22.31,9.56,22.59Z"/><ellipse class="cls-4" cx="666.64" cy="589.5" rx="2.17" ry="2.18"/><ellipse class="cls-4" cx="651.71" cy="595.31" rx="2.17" ry="2.18"/><ellipse class="cls-4" cx="649.63" cy="552.08" rx="2.17" ry="2.18"/><ellipse class="cls-4" cx="634.68" cy="560.43" rx="2.17" ry="2.18"/><ellipse class="cls-4" cx="633.15" cy="517.08" rx="2.17" ry="2.18"/><ellipse class="cls-4" cx="618.57" cy="523.76" rx="2.17" ry="2.18"/><ellipse class="cls-4" cx="615.59" cy="480.12" rx="2.17" ry="2.18"/><ellipse class="cls-4" cx="601.01" cy="486.8" rx="2.17" ry="2.18"/><path class="cls-7" d="M594.61,455s-.21,6,1.78,9.44,6.42,4.79,6.42,4.79.21-6-1.78-9.44S594.61,455,594.61,455Z"/><path class="cls-7" d="M590.46,468.61s5.22.31,8.23,2.63,4.17,7.14,4.17,7.14a10,10,0,0,1-6.46-2C593.39,474.1,590.46,468.61,590.46,468.61Z"/><path class="cls-7" d="M606.82,456.45a21.18,21.18,0,0,0-1.53,8.29c.2,4.3,2.7,9.15,2.7,9.15s2.26-5.17,2.06-9.47-2.62-6.75-3.23-8Z"/><path class="cls-7" d="M598.05,495.23a19.81,19.81,0,0,0,6.5,5.54c3.94,2,9.81,2,9.81,2a23,23,0,0,0-6.87-5.77c-3.94-1.95-9.44-1.8-9.44-1.8Z"/><path class="cls-7" d="M599.31,503.56a13,13,0,0,0,5.32,5.29c3.45,1.58,10.48,1.45,10.48,1.45a19.55,19.55,0,0,0-6.14-5c-3.44-1.59-9.66-1.7-9.66-1.7Z"/><path class="cls-7" d="M619.12,483.84a14.36,14.36,0,0,0-1.87,7.25c.2,3.8,2.69,8,2.69,8a26.23,26.23,0,0,0,1.54-8.56,13.32,13.32,0,0,0-2.36-6.64Z"/><path class="cls-7" d="M626.78,488.71s-3.56,4.8-4.07,9.73,2,10,2,10,4.29-4.34,4.8-9.26-2.76-10.45-2.76-10.45Z"/><path class="cls-7" d="M617,534.22a10.37,10.37,0,0,0,1.92,3.66,27.83,27.83,0,0,0,4,3.87,11.67,11.67,0,0,1,5.51-.13c3.05.67,7.12,3.4,7.12,3.4s-4.38-6.55-8.92-9.1a16.4,16.4,0,0,0-9.66-1.7Z"/><path class="cls-7" d="M616.52,545.48s5.66-2.42,10.33-1.8,8.86,4.33,8.86,4.33-6.3,2.19-11,1.56a16.43,16.43,0,0,1-8.23-4.09Z"/><path class="cls-7" d="M640.45,519.07s-5,5.32-5.43,9.94,4.06,8.92,4.06,8.92a13.61,13.61,0,0,1,.55-4.91,19.55,19.55,0,0,1,2.41-4,12.19,12.19,0,0,0,.43-4.29,19.45,19.45,0,0,0-2-5.63Z"/><path class="cls-7" d="M647.63,525.23s-4.72,4.79-6,9.93,1,10.6,1,10.6a17.51,17.51,0,0,0,5.54-8.53c1.25-5.13-.55-12-.55-12Z"/><path class="cls-7" d="M659.45,556.17a35,35,0,0,1,2.68,8.22c.54,3.75,0,5.05,0,5.05s-2.21,2.18-3.2,3.46a10.09,10.09,0,0,0-1.46,4.66s-4.44-6.62-3.76-11.46,5.7-9.93,5.7-9.93Z"/><path class="cls-7" d="M668.8,566.53s-5.68,3.77-7.94,7.63a10.79,10.79,0,0,0-1.09,7.83,8.77,8.77,0,0,0,6.31-4.23c2.25-3.86,2.72-11.23,2.72-11.23Z"/><path class="cls-7" d="M631.46,582.44s8.19-.22,13.2,1,6.82,3.92,6.82,3.92-5.62,2.65-10.63,1.41-9.39-6.35-9.39-6.35Z"/><path class="cls-7" d="M630.08,572.69s3.69,5.75,8.47,7.84c6.58,2.87,14.2,1.48,14.2,1.48a27.6,27.6,0,0,0-9.83-7.35c-5.7-2.24-12.84-2-12.84-2Z"/><path d="M910.43,459.8l1.07,2.27a4.89,4.89,0,0,0-2.52,2.14c-.78,1.54.51,3.72.51,3.72s-9-.78-10.41.13.54,7.09-.3,12.38c-1.16,7.37-4.06,6.75-4.18,8.18a8.38,8.38,0,0,0,1.11,3.55s-1.69.54-2.05,1.25c-.57,1.14.41,3.24-.29,4.62l-13.53,26.64c-.53,1.05-2,1.45-2.69,2.87a5.25,5.25,0,0,0-.12,3.21s-2.54.15-3.42,1.89a7.5,7.5,0,0,0-.38,4.32,3.35,3.35,0,0,0-2.39,1.76c-.84,1.65.58,2.52.22,3.25-5.15,10.13-11.2,22.06-14.89,29.34-1.36,2.67-6.12,3.21-8.88,8.65a8,8,0,0,0,1.15,9.16s-4,.37-5,2.45a5.5,5.5,0,0,0,9.73,5c1.05-2.08-1.07-5.52-1.07-5.52a8.05,8.05,0,0,0,8.06-4.5c2.76-5.44.44-9.57,1.79-12.25l14.89-29.33c.37-.73,1.89-.1,2.73-1.76a3.26,3.26,0,0,0,0-2.95,7.51,7.51,0,0,0,3.29-2.87c.88-1.74-.47-3.9-.47-3.9a5.11,5.11,0,0,0,2.52-2c.72-1.42.19-2.8.72-3.86L899.13,501c.7-1.39,3-1.86,3.54-3,.36-.71-.22-2.4-.22-2.4a8.14,8.14,0,0,0,3.54-1.16c1.09-.93-1.11-2.94,4.14-8.22,3.77-3.79,9.85-6,9.77-7.54-.09-1.68-6-8.52-6-8.52s2.5-.21,3.28-1.75a5.14,5.14,0,0,0,.26-3.35l2.47-.42V452.86Zm-81.78,164a2.92,2.92,0,0,0,0,2.61s-3-.94-4-.43,0,14.6,0,14.6,11.91-7.54,11.73-8.6-2.69-3-2.69-3a2.86,2.86,0,0,0,2.09-1.5c.4-.78.45-3-2.26-4.37a4.76,4.76,0,0,0-2.64-.6,2.82,2.82,0,0,0-2.22,1.33Z"/><path class="cls-4" d="M912.6,460.27l5.63,2.87-.09-6.81Z"/><path class="cls-4" d="M910.42,464.38a3.28,3.28,0,0,0,.92,4.53,3.24,3.24,0,0,0,4.51-.92,3.28,3.28,0,0,0-.92-4.53,2.59,2.59,0,0,0-.33-.19,3.52,3.52,0,0,0-1.83-.39,2.82,2.82,0,0,0-2.35,1.5Z"/><path class="cls-4" d="M900.74,469.57c-.59.38.21,5.47,0,9.8-.16,4.09-1.46,5.24-2.17,6.64a10.87,10.87,0,0,1-3,2.83l2,2s1.28-2,3.28-6c2.37-4.66,2.3-13.12,3-13.57a53.45,53.45,0,0,1,5.55-1.63s-4.54-.25-7-.21A5.26,5.26,0,0,0,900.74,469.57Z"/><path class="cls-4" d="M901.26,493.08a63.91,63.91,0,0,1,2.94-6.34c2.76-5.44,8.65-9.38,8.79-10.37s-2-5.78-2-5.78-5.2,1-5.93,1.72-.4,7.75-3.16,13.19a63.77,63.77,0,0,1-3.41,6.16Z"/><path class="cls-4" d="M914.52,476.76c.05.83-6.8,5.74-9.17,10.41-2,3.95-2.86,6.16-2.86,6.16l2.73.43s-.19-2.81.47-4.11.9-3.12,4.1-5.65c3.39-2.69,8-5,7.93-5.74s-5.12-7-5.12-7a53.08,53.08,0,0,1,1.92,5.48Z"/><path class="cls-4" d="M894.47,507.29a51.11,51.11,0,0,1,5.89-9.67c.56-1.1.42-2.58-1.41-3.52a3.18,3.18,0,0,0-1.79-.38,2.33,2.33,0,0,0-1.83,1.33A51.7,51.7,0,0,1,891,505.54l-9.34,18.37a2,2,0,0,0,.71,2.67h0l.14.07a1.85,1.85,0,0,0,2.54-.72,1.51,1.51,0,0,0,.11-.22Z"/><path class="cls-4" d="M878,528.37c-.5,1,.37,2.48,2,3.29s3.33.67,3.84-.34-.41-2.48-2-3.3a4.29,4.29,0,0,0-2.3-.51A1.75,1.75,0,0,0,878,528.37Z"/><path class="cls-4" d="M874.51,533.59c-.66,1.3.36,3.17,2.3,4.16s4,.74,4.69-.56-.37-3.17-2.3-4.16a5.32,5.32,0,0,0-2.13-.6,2.62,2.62,0,0,0-2.56,1.16Z"/><path class="cls-4" d="M872.33,539.42c-.51,1,.37,2.48,2,3.29s3.33.67,3.84-.34-.36-2.48-2-3.3a4.45,4.45,0,0,0-2.35-.51,1.75,1.75,0,0,0-1.49.86Z"/><path class="cls-4" d="M870.92,545s-10.37,20.5-14,27.71c-1.17,2.31-6.09,3.74-8,7.54s-.57,7.4,2,8.69,6.25.36,8.19-3.46.2-8.67,1.37-11c3.66-7.21,14-27.71,14-27.71a1.93,1.93,0,0,0-.63-2.64l-.18-.1a2,2,0,0,0-1.19-.21A2.17,2.17,0,0,0,870.92,545Z"/><path class="cls-4" d="M844.68,592.56c-.78,1.53.11,3.57,2,4.54s4.08.5,4.86-1-.16-3.57-2-4.54a4.49,4.49,0,0,0-2.13-.51,3,3,0,0,0-2.69,1.54Z"/><path class="cls-4" d="M830.86,623.87a1.39,1.39,0,0,0-1.28.6c-.39.78.43,2,1.84,2.74s2.88.65,3.28-.13-.42-2-1.83-2.74a4.13,4.13,0,0,0-2-.47Z"/><path class="cls-4" d="M826,627.72v10.11l8.19-5.91a9.13,9.13,0,0,0-8.19-4.2Z"/><path class="cls-4" d="M831.18,402.62c0-5.54,7.26-11,7.26-11H661.56s7.26,5.47,7.26,11V534.79a12,12,0,0,0,2.77,8,37.23,37.23,0,0,0,9.09,8.14c11.61,7.57,31,15.56,45.73,22.27,12.24,5.59,17.23,7.85,23.59,15.76,6.37-7.91,11.39-10.17,23.63-15.76,14.7-6.71,34.12-14.7,45.74-22.27a37.16,37.16,0,0,0,9.08-8.14,12,12,0,0,0,2.73-8Z"/><path class="cls-6" d="M673,477.4V402.62a11.32,11.32,0,0,0-2.14-6.81H829.14a11.32,11.32,0,0,0-2.14,6.81l0,74.78-77,23.42Z"/><path class="cls-8" d="M827.05,477.4l-47.7-.9H720.69l-47.69.9v57.39c0,2.88,3,9.64,20.18,18.24,28.42,14.22,50.27,20.86,56.82,29,6.55-8.09,28.4-14.73,56.83-29C824,544.43,827,537.67,827,534.79Z"/><path d="M778.2,474.4s27.52-7,27.52-36.49c0-23.05-27.59-34.49-28.37-40-2.7,9.52,9.21,22.67,9.21,38.25,0,20.15-14.8,21.11-14.8,21.11-3.47,0-4.87,2.48-6.23,2.48-2.92-.3-4.29-4-7.17-4-2.7,0-4.78,4.2-8.36,4.2s-5.61-4.2-8.32-4.2c-2.88,0-4.25,3.72-7.17,4-1.36,0-2.76-2.48-6.23-2.48,0,0-14.8-1-14.8-21.11,0-15.58,11.91-28.73,9.22-38.25-.78,5.51-28.37,16.94-28.37,40,0,29.53,27.51,36.49,27.51,36.49L714,488.75s11.37.57,17.4,5.74c7.28,6.23,6.57,19.43,6.57,29,0,7.57-1,15.56-4.82,18.85-5.19,4.42-8.7,4.74-8.7,9.93,0,4.33,3.31,5.2,8.7,8.06,6.91,3.65,6.58,8.56,16.85,8.56s10-4.91,16.89-8.56c5.39-2.86,8.71-3.73,8.71-8.06,0-5.19-3.51-5.51-8.71-9.93-3.86-3.3-4.82-11.28-4.82-18.85,0-9.6-.7-22.8,6.57-29,6-5.17,17.41-5.74,17.41-5.74Z"/><path d="M750,400l-4.78,13.62-13-6.21,6.18,13.07-13.56,4.83,13.56,4.84-6.18,13,13-6.21L750,450.54l4.82-13.62,13,6.21-6.19-13,13.57-4.84-13.57-4.83,6.19-13.07-13,6.21Z"/><path d="M720.69,476.5s-17-4.17-23.34-12.59A65.28,65.28,0,0,1,673,477.4s13.84,6.27,24.36,14.26c4.85-7,23.34-15.16,23.34-15.16Z"/><path d="M779.35,476.5s18.49,8.19,23.33,15.16c10.52-8,24.36-14.26,24.36-14.26a65.35,65.35,0,0,1-24.36-13.49c-6.34,8.42-23.33,12.59-23.33,12.59Z"/><path d="M727.65,494.65,721,501.29l6.61,6.64,6.61-6.64Z"/><path d="M772.4,494.65l-6.61,6.64,6.61,6.64,6.61-6.64Z"/><path d="M726,533.41a78.39,78.39,0,0,1-.81,12.81s9.32-2.76,11.18-12.25c.87-4.45,1.84-20.85-2.64-23.64l-12.16-2.4A75,75,0,0,1,726,533.41Z"/><path d="M766.34,510.33c-4.49,2.79-3.52,19.19-2.65,23.64,1.86,9.49,11.18,12.25,11.18,12.25a78.39,78.39,0,0,1-.81-12.81,75,75,0,0,1,4.44-25.48Z"/><path d="M697.32,510.8a7.78,7.78,0,0,0-5,11.35,7.43,7.43,0,0,0-1.92-.38,5.48,5.48,0,0,0-.81,0,7.85,7.85,0,0,0,.66,15.69c.32,0,.64-.05,1-.1A7.84,7.84,0,1,0,704.84,545l0-.07a8,8,0,0,0,.47-1.85,7.73,7.73,0,0,0,1.32,1.42,7.85,7.85,0,0,0,10.22-11.91,8.31,8.31,0,0,0-1.77-1.16,7.71,7.71,0,0,0,1.75-.81,7.93,7.93,0,0,0,2.47-10.88,7.8,7.8,0,0,0-10.79-2.44,7.91,7.91,0,0,0-1.5,1.2,7.89,7.89,0,0,0-7.92-7.88,7.77,7.77,0,0,0-1.8.21Z"/><path d="M780.5,533.67c.85,8,7.34,14.74,15.36,16.66a17.82,17.82,0,0,1-2.56-7.41c-1-9.51,6.32-17.21,16.34-17.21a19.23,19.23,0,0,1,4.6.55,20.68,20.68,0,0,0-17.4-9.85C786.82,516.41,779.49,524.16,780.5,533.67Z"/><path class="cls-2" d="M709.47,436.16c0,15.16,8.06,24.11,18.82,24.11,2.05,0,4.29,2.78,6.23,2.78,3.15,0,5.24-3.51,7.16-3.51,2.44,0,4.09,3.85,8.32,3.85s5.92-3.85,8.36-3.85c1.92,0,4,3.51,7.17,3.51,1.93,0,4.18-2.78,6.23-2.78,10.76,0,18.81-8.95,18.81-24.11,0-12.37-10.34-27.45-9.21-29.9,0,0,20.18,14.53,20.18,31.65,0,27.58-27.86,34.39-27.86,34.39L780,486.48s-8.63,1.3-13.91,5.57c-7,5.69-7.12,21.07-7.12,31.47,0,12.26.45,17.45,4.86,20.77,4.65,3.51,8.15,4.27,8.15,7.84,0,3.12-3.62,4.39-8.32,6.47-5.34,2.36-5.88,6.46-13.61,6.46s-8.22-4.1-13.56-6.46c-4.7-2.08-8.32-3.35-8.32-6.47,0-3.57,3.49-4.33,8.14-7.84,4.41-3.32,4.87-8.51,4.87-20.77,0-10.4-.09-25.78-7.13-31.47-5.27-4.27-13.9-5.57-13.9-5.57l6.27-14.18s-27.86-6.81-27.86-34.39c0-17.12,20.18-31.65,20.18-31.65,1.13,2.45-9.22,17.53-9.22,29.9Zm30,113.88c-5.47,0-9,1.15-9,2.82s3.48,2.79,9,2.79a2.82,2.82,0,1,0,.16-5.62Zm21.12,0a2.9,2.9,0,0,0-3.11,2.67h0v.15a2.86,2.86,0,0,0,3.11,2.79c5.47,0,9-1.12,9-2.79s-3.49-2.82-9-2.82Z"/><path class="cls-2" d="M750.05,409.13l3.07,8.7,8.27-4-3.92,8.36,8.62,3.08-8.62,3.08,3.92,8.31-8.27-3.94L750,441.38l-3.07-8.65-8.27,3.94,3.92-8.31L734,425.28l8.62-3.08-3.92-8.36,8.27,4,3.12-8.7Z"/><path class="cls-2" d="M681.1,477.65s10.5,5.25,15.78,9.93l.3.26.17-.21c5-5.75,14.25-10.63,14.25-10.63s-8.9-2.46-14.51-8.9C691.17,474.16,681.1,477.65,681.1,477.65Z"/><path class="cls-2" d="M818.94,477.66s-10.51,5.25-15.79,9.94l-.3.25-.17-.21c-5-5.75-14.24-10.62-14.24-10.62s8.89-2.47,14.5-8.91C808.87,474.17,818.94,477.66,818.94,477.66Z"/><path class="cls-2" d="M727.65,497.82l3.45,3.47-3.45,3.52-3.5-3.52Z"/><path class="cls-2" d="M772.4,497.82l3.5,3.47-3.5,3.52-3.46-3.52Z"/><path class="cls-2" d="M732.34,513c2.42,3.35,2,8.75,2,16.28a11.79,11.79,0,0,1-5.68,10.49c0-18.23-1.87-22.62-2.86-28.14Z"/><path class="cls-2" d="M774.23,511.61c-1,5.52-2.86,9.91-2.86,28.14a11.76,11.76,0,0,1-5.67-10.49c0-7.53-.41-12.93,2-16.28l6.53-1.37Z"/><path id="leaf" class="cls-2" d="M705.51,518.51a6.23,6.23,0,0,1,.13,2,6,6,0,0,1-.39,1.54,8.88,8.88,0,0,0-9.64,2.48,6.16,6.16,0,0,1-1.11-1.28,6,6,0,0,1-.81-1.8,6.09,6.09,0,1,1,11.82-3Z"/><path id="leaf-2" class="cls-2" d="M714.6,529.94a6,6,0,0,1-1.87.74,5.52,5.52,0,0,1-1.57.11,9,9,0,0,0-5.34-8.44,6.31,6.31,0,0,1,.88-1.45,6.08,6.08,0,1,1,7.9,9Z"/><path id="leaf-3" class="cls-2" d="M706.59,542.15a5.79,5.79,0,0,1-1.28-1.55,5.61,5.61,0,0,1-.6-1.48,8.94,8.94,0,0,0,6.35-7.69,6.19,6.19,0,0,1,1.65.38,5.94,5.94,0,0,1,1.71,1,6.1,6.1,0,0,1-7.83,9.36Z"/><path id="leaf-4" class="cls-2" d="M692.54,538.27a5.84,5.84,0,0,1,1.08-1.7,5.65,5.65,0,0,1,1.21-1,8.89,8.89,0,0,0,9.25,3.68,6,6,0,0,1,.15,1.69,6.16,6.16,0,0,1-.4,1.94,6.09,6.09,0,1,1-11.29-4.59Z"/><path id="leaf-5" class="cls-2" d="M691.87,523.66a6,6,0,0,1,2,.51,5.69,5.69,0,0,1,1.34.84,9,9,0,0,0-.62,10,6.1,6.1,0,0,1-1.56.66,5.91,5.91,0,0,1-2,.22,6.11,6.11,0,0,1,.85-12.2Z"/><ellipse class="cls-2" cx="702.22" cy="530.51" rx="5.89" ry="5.91"/><path class="cls-2" d="M805.59,522.54c-9.78,1.9-16.81,10.56-15.79,20.68a15.39,15.39,0,0,1-5.8-9.93c-.79-7.51,4.64-13.32,12.84-13.32a16.75,16.75,0,0,1,8.75,2.57Z"/><path id="_136445216" data-name=" 136445216" d="M835,392.93H665c2.26,2.28,5.12,5.92,5.12,9.68V517.39h0v17.39h0a11.33,11.33,0,0,0,.64,4,12.11,12.11,0,0,0,1.81,3.16l0,0a31.11,31.11,0,0,0,5.72,5.63c.49.38,1,.76,1.48,1.12s1,.7,1.52,1h0c9,5.9,23,12.1,35.64,17.73,3.53,1.57,7,3.1,9.91,4.44h0l.28.13h0c11.59,5.29,16.76,7.65,22.81,14.77,6.07-7.14,11.22-9.49,22.91-14.83h0l.13-.06c3-1.34,6.39-2.87,9.92-4.44,12.66-5.63,26.59-11.83,35.64-17.72h0a42,42,0,0,0,7-5.76c.35-.36.67-.72,1-1.06s.53-.66.75-1l0,0h0a12.53,12.53,0,0,0,1.83-3.17,11.07,11.07,0,0,0,.66-4h0V517.39h0V402.61c0-3.76,2.86-7.4,5.12-9.68Zm-2.47,9.68V517.39h0v17.39h0a13.73,13.73,0,0,1-.84,4.92,14.36,14.36,0,0,1-2.19,3.82h0c-.25.35-.55.74-.89,1.14s-.68.78-1.07,1.19A43.59,43.59,0,0,1,820,552h0c-9.25,6-23.27,12.26-36,17.93-3.33,1.48-6.58,2.92-9.88,4.43l-.13.06h0c-11.94,5.46-16.83,7.69-23,15.32L750,591l-1-1.28c-6.11-7.6-11-9.84-22.87-15.25h0l-.28-.13h0c-3.31-1.51-6.55-3-9.89-4.44-12.74-5.66-26.77-11.9-36-17.93l0,0h0c-.52-.33-1-.7-1.59-1.09s-1-.77-1.56-1.17a33.92,33.92,0,0,1-6.25-6.19h0a14.3,14.3,0,0,1-2.17-3.82,14.14,14.14,0,0,1-.81-4.91h0V517.39h0V402.61c0-4.88-6.7-9.93-6.72-9.95v-2.38H839.23v2.38s-6.72,5.07-6.72,9.95Zm-4-8.13h3.37l-1.71,2.16a9.85,9.85,0,0,0-1.84,6V517.39h0v17.39h0c0,2.35-1.64,6.89-9.36,12.55h0c-1.44,1.06-3.11,2.17-5,3.32s-4.09,2.34-6.5,3.55h0l0,0h0c-10.32,5.16-19.85,9.36-28.07,13C765.22,573.41,755,577.91,751,582.8l0,0h0l-1,1.2-1-1.23c-4-4.9-14.2-9.4-28.33-15.63-8.22-3.61-17.74-7.8-28-13h0c-7.31-3.66-12.12-7-15.24-9.89-.62-.57-1.17-1.12-1.67-1.66-3.17-3.42-4-6.19-4-7.88h0V517.39h0V402.61a9.85,9.85,0,0,0-1.84-6l-1.71-2.15H828.51Zm-2.32,2.65h-153a13.42,13.42,0,0,1,1.17,5.48V517.39h0v17.39h0c0,1.2.68,3.26,3.3,6.08.45.48.95,1,1.52,1.51,3,2.73,7.56,5.93,14.63,9.47h0c10.37,5.18,19.79,9.33,27.92,12.91,13.45,5.92,23.45,10.32,28.3,15.24,4.85-4.92,14.85-9.32,28.3-15.24,8.13-3.58,17.56-7.73,27.94-12.92h0c2.4-1.2,4.5-2.35,6.33-3.44s3.44-2.17,4.82-3.18h0c6.82-5,8.27-8.62,8.27-10.42h0V517.39h0V402.61a13.42,13.42,0,0,1,1.17-5.48h-.66Z"/></svg>