<svg xmlns="http://www.w3.org/2000/svg" shape-rendering="geometricPrecision" text-rendering="geometricPrecision" image-rendering="optimizeQuality" fill-rule="evenodd" clip-rule="evenodd" viewBox="0 0 205.46 143.18"><g fill-rule="nonzero"><path fill="#fff" d="M11.65.4h182.16c6.19 0 11.25 5.06 11.25 11.25v119.88c0 6.18-5.06 11.25-11.25 11.25H11.65C5.46 142.78.4 137.71.4 131.53V11.65C.4 5.46 5.46.4 11.65.4z"/><path fill="#001489" d="M205.06 42.72H.4V11.65C.4 5.46 5.46.4 11.65.4h182.16c6.19 0 11.25 5.06 11.25 11.25v31.07z"/><path fill="#009A44" d="M.4 100.45h204.66v31.08c0 6.18-5.06 11.25-11.25 11.25H11.65C5.46 142.78.4 137.71.4 131.53v-31.08z"/><path d="M102.73 45.03c.76 0 1.45.42 1.8 1.1 4.28.51 6.53 3.6 7.31 7.21.92 4.21-.05 9.94-3.02 15.95l11.41 15.15c.6-.28 1.21-.59 1.8-.9l4.19 8.88a51.058 51.058 0 01-23.49 5.72c-8.17 0-16.24-1.96-23.49-5.72l4.2-8.88c.58.31 1.19.62 1.79.89l11.42-15.14c-2.98-6.01-3.94-11.74-3.03-15.95.78-3.61 3.03-6.7 7.31-7.21.35-.68 1.04-1.1 1.8-1.1zm4.52 22.18c2.32-5.17 3.07-10.07 2.34-13.31-.65-2.86-2.1-4.99-4.98-5.44v7.4l3.61 3.6h-2.89v5.2l1.92 2.55zm-6.4-18.75c-2.88.45-4.33 2.58-4.97 5.44-.74 3.24.02 8.14 2.33 13.31l1.92-2.55v-5.2h-2.88l3.6-3.6v-7.4zM84.83 87.34l-1.23 2.61 2-.54-.77-2.07zm-1 3.74c.91.4 1.85.76 2.78 1.1L86 90.5l-2.17.58zm4.54-.39l2.59-.82-.74-1.67c-1.06-.32-2.13-.69-3.17-1.1l1.32 3.59zm3.06.24l-2.66.85.46 1.25c1.16.34 2.36.64 3.54.89l-1.34-2.99zm2.88 1.14l2.85-1.17-.68-1.29c-1.19-.18-2.4-.41-3.57-.69l1.4 3.15zm3.4-.15l-2.93 1.2.57 1.28c1.29.19 2.6.35 3.9.44l-1.54-2.92zm2.87.81l3.56-1.86-.51-.82c-.3.01-.61.01-.91.01-1.21 0-2.42-.05-3.63-.15l1.49 2.82zm4.18-.88l-3.63 1.9.63 1.21c.32 0 .65.01.97.01 1.3 0 2.61-.05 3.9-.16l-1.87-2.96zm2.99.68l2.8-1.93-.81-1.11c-1.2.19-2.42.34-3.63.44l1.64 2.6zm3.48-.99l-2.86 1.96.66 1.05c1.3-.17 2.62-.41 3.9-.68l-1.7-2.33zm2.6-.11l2.33-2.07-.95-1.15c-1.03.31-2.08.59-3.13.82l1.75 2.4zm3.07-1.18l-2.38 2.12.69.95c1.13-.31 2.26-.66 3.36-1.05l-1.67-2.02zm2.38-.52l1.58-1.91-.69-1.45c-.9.4-1.83.77-2.75 1.11l1.86 2.25zm2.12-.75l-1.37 1.65.69.84c.51-.21 1.04-.44 1.55-.67l-.87-1.82z"/><path fill="#CCC" d="M11.65 0h182.16c3.21 0 6.12 1.31 8.23 3.42a11.61 11.61 0 013.42 8.23v119.88c0 3.2-1.31 6.11-3.42 8.22-2.11 2.11-5.02 3.43-8.23 3.43H11.65c-3.2 0-6.12-1.32-8.23-3.43A11.604 11.604 0 010 131.53V11.65c0-3.21 1.31-6.12 3.42-8.23C5.53 1.31 8.45 0 11.65 0zm182.16.8H11.65c-2.99 0-5.7 1.22-7.66 3.19A10.793 10.793 0 00.8 11.65v119.88c0 2.98 1.22 5.69 3.19 7.66 1.96 1.97 4.67 3.19 7.66 3.19h182.16c2.99 0 5.7-1.22 7.67-3.19 1.96-1.97 3.18-4.68 3.18-7.66V11.65c0-2.98-1.22-5.7-3.19-7.66A10.776 10.776 0 00193.81.8z"/></g></svg>