<?xml version="1.0" encoding="UTF-8" standalone="no"?>
<!-- Generator: Adobe Illustrator 13.0.2, SVG Export Plug-In . SVG Version: 6.00 Build 14948)  -->

<svg
   xmlns:dc="http://purl.org/dc/elements/1.1/"
   xmlns:cc="http://creativecommons.org/ns#"
   xmlns:rdf="http://www.w3.org/1999/02/22-rdf-syntax-ns#"
   xmlns:svg="http://www.w3.org/2000/svg"
   xmlns="http://www.w3.org/2000/svg"
   xmlns:sodipodi="http://sodipodi.sourceforge.net/DTD/sodipodi-0.dtd"
   xmlns:inkscape="http://www.inkscape.org/namespaces/inkscape"
   version="1.1"
   id="Calque_1"
   x="0px"
   y="0px"
   width="800"
   height="532.33301"
   viewBox="-60 -40 800 532.33301"
   enable-background="new -60 -40 900 600"
   xml:space="preserve"
   inkscape:version="0.47+devel r9322"
   sodipodi:docname="Drapeaux Sahara occidental.svg"><metadata
   id="metadata34"><rdf:RDF><cc:Work
       rdf:about=""><dc:format>image/svg+xml</dc:format><dc:type
         rdf:resource="http://purl.org/dc/dcmitype/StillImage" /><dc:title></dc:title></cc:Work></rdf:RDF></metadata><defs
   id="defs32" /><sodipodi:namedview
   pagecolor="#ffffff"
   bordercolor="#666666"
   borderopacity="1"
   objecttolerance="10"
   gridtolerance="10"
   guidetolerance="10"
   inkscape:pageopacity="0"
   inkscape:pageshadow="2"
   inkscape:window-width="1056"
   inkscape:window-height="728"
   id="namedview30"
   showgrid="false"
   inkscape:zoom="0.96"
   inkscape:cx="387.64455"
   inkscape:cy="265.41484"
   inkscape:window-x="0"
   inkscape:window-y="0"
   inkscape:window-maximized="0"
   inkscape:current-layer="Calque_1" />
<desc
   id="desc3">Flag of Morocco</desc>
<g
   id="g5"
   transform="translate(-955.5,-277.20799)">
	<rect
   id="rect611"
   x="895.5"
   y="241.20799"
   width="800"
   height="174.57001" />
	<rect
   id="rect612"
   x="895.5"
   y="590.34601"
   width="800"
   height="174.57001"
   style="fill:#008000" />
	<rect
   id="rect643"
   x="895.5"
   y="415.77899"
   width="800"
   height="174.567"
   style="fill:#ffffff" />
	<path
   id="path615"
   d="M 895.5,241.208 1040.631,503.693 895.5,764.916 V 241.208 l 0,0 0,0 0,0 z"
   inkscape:connector-curvature="0"
   style="fill:#cc0000" />
	<ellipse
   id="circle1456"
   cx="1138.198"
   cy="503.06299"
   rx="58.853001"
   ry="69.620003"
   d="m 1197.051,503.06299 c 0,38.45006 -26.3494,69.62 -58.853,69.62 -32.5036,0 -58.853,-31.16994 -58.853,-69.62 0,-38.45007 26.3494,-69.62 58.853,-69.62 32.5036,0 58.853,31.16993 58.853,69.62 z"
   sodipodi:cx="1138.198"
   sodipodi:cy="503.06299"
   sodipodi:rx="58.853001"
   sodipodi:ry="69.620003"
   style="fill:#cc0000" />
	<ellipse
   id="circle3256"
   cx="1160.6851"
   cy="503.06299"
   rx="58.852001"
   ry="69.620003"
   d="m 1219.5371,503.06299 c 0,38.45006 -26.349,69.62 -58.852,69.62 -32.5031,0 -58.852,-31.16994 -58.852,-69.62 0,-38.45007 26.3489,-69.62 58.852,-69.62 32.503,0 58.852,31.16993 58.852,69.62 z"
   sodipodi:cx="1160.6851"
   sodipodi:cy="503.06299"
   sodipodi:rx="58.852001"
   sodipodi:ry="69.620003"
   style="fill:#ffffff" />
	<path
   id="path3258"
   d="m 1122.354,545.344 25.17,-21.285 24.973,21.605 -9.334,-34.895 25.088,-21.419 -30.938,-0.281 -9.468,-34.846 -9.787,34.722 -30.939,-0.116 24.891,21.741 -9.656,34.774 z"
   inkscape:connector-curvature="0"
   style="fill:#cc0000" />
	<polygon
   points="1695.5,765.541 1559.5,765.541 1031.5,241.208 1695.5,241.208 "
   id="polygon14"
   style="fill:#c1272d" />
	<g
   transform="matrix(0.4392946,0,0,0.4618638,-84.342931,-57.008939)"
   id="g16">
		<path
   d="m 3632.999,1163.055 -170.577,0.152 194.183,140.996 29.119,-21.15 -117.707,-85.517 53.795,-0.152 11.187,-34.329 z"
   id="path18"
   inkscape:connector-curvature="0"
   style="fill:#006233;stroke:#000000;stroke-width:0.58200002" />
		<path
   d="m 3738.521,1163.11 -52.855,-162.176 -74.098,228.24 29.115,21.157 44.963,-138.364 16.766,51.111 36.109,0.032 z"
   id="path20"
   inkscape:connector-curvature="0"
   style="fill:#006233;stroke:#000000;stroke-width:0.58200002" />
		<path
   d="m 3771.078,1263.48 137.912,-100.385 -239.975,0.066 -11.126,34.226 145.495,0 -43.433,31.741 11.127,34.35 z"
   id="path22"
   inkscape:connector-curvature="0"
   style="fill:#006233;stroke:#000000;stroke-width:0.58200002" />
		<path
   d="m 3685.676,1325.455 138.094,100.136 -74.218,-228.2 -35.991,0 44.956,138.366 -43.611,-31.494 -29.23,21.196 z"
   id="path24"
   inkscape:connector-curvature="0"
   style="fill:#006233;stroke:#000000;stroke-width:0.58200002" />
		<path
   d="m 3600.343,1263.389 -52.568,162.273 194.105,-141.102 -11.115,-34.23 -117.707,85.515 16.477,-51.208 -29.192,-21.248 z"
   id="path26"
   inkscape:connector-curvature="0"
   style="fill:#006233;stroke:#000000;stroke-width:0.58200002" />
	</g>
	<line
   x1="1031.5"
   y1="241.20799"
   x2="1559.5"
   y2="765.54102"
   id="line28"
   style="fill:#ffffff;stroke:#ffffff;stroke-width:8" />
</g>
</svg>